<?xml version="1.0" encoding="utf-8"?>
<!-- Svg Vector Icons : http://www.onlinewebfonts.com/icon -->
<!DOCTYPE svg PUBLIC "-//W3C//DTD SVG 1.1//EN" "http://www.w3.org/Graphics/SVG/1.1/DTD/svg11.dtd">
<svg version="1.1" xmlns="http://www.w3.org/2000/svg" xmlns:xlink="http://www.w3.org/1999/xlink" x="0px" y="0px" viewBox="0 0 256 256" enable-background="new 0 0 256 256" xml:space="preserve">
<metadata> Svg Vector Icons : http://www.onlinewebfonts.com/icon </metadata>
<g><g><g><path fill="#000000" d="M107.8,29.3c-7.8,2.1-13.9,8.3-15.9,16.2c-0.6,2-0.7,5.5-0.7,15v12.3H60.4c-25.8,0-31.2,0.1-33.4,0.7c-8,2.1-14.1,8.2-16.2,16.1c-1.1,4.1-1.1,80.2,0,84.3c2.3,8.6,9.4,15.2,18.2,16.5l3.2,0.5v15.4c0,16.8,0.1,17.3,2.7,19.6c1.7,1.4,3.9,1.9,6.4,1.5c1.5-0.3,4-2.6,19.9-18.5l18.2-18.1h33c36.2,0,35.6,0,41-2.8c3.2-1.8,7.2-5.8,8.9-9.1c2.3-4.6,2.6-6.6,2.6-20v-12.3h5.8h5.9l18.2,18.1c15.9,15.9,18.4,18.2,19.9,18.5c2.4,0.5,4.7,0,6.4-1.5c2.6-2.3,2.7-2.8,2.7-19.6v-15.4l3.2-0.5c8.8-1.4,16-7.9,18.2-16.5c1-4,1.1-80.2,0-84.2c-2.1-8-8.2-14.1-16.1-16.2C225.1,28.3,111.7,28.3,107.8,29.3z M227.8,44.5c0.7,0.5,1.7,1.5,2.2,2.2c1,1.2,1,1.6,1,40.8s0,39.6-1,40.8c-2.1,2.9-2.9,3.2-9.9,3.4s-7.7,0.6-9.9,3.4c-0.9,1.2-1,2.1-1.2,12.1l-0.2,10.8l-12.4-12.5c-6.8-6.9-13.1-12.8-13.9-13.1c-1.1-0.5-3.6-0.6-9.6-0.6h-8.1V112c0-21.3-0.1-22.5-2.6-27.4c-1.7-3.3-5.7-7.3-8.9-9.1c-5.1-2.7-6.1-2.8-27.8-2.8h-19.7V61.1c0-12.2,0.2-13.5,2-15.4c2.3-2.4-0.6-2.3,61.2-2.2C226.3,43.5,226.5,43.5,227.8,44.5z M146.7,88.7c0.7,0.5,1.7,1.5,2.2,2.2c1,1.2,1,1.6,1,40.8s0,39.6-1,40.8c-0.5,0.7-1.5,1.7-2.2,2.2c-1.2,1-1.8,1-37,1.2c-26.4,0.2-36,0.4-36.7,0.8c-0.5,0.3-6.5,6.2-13.4,13l-12.4,12.5l-0.2-10.8c-0.2-10-0.3-10.9-1.2-12.1c-2.1-2.9-2.9-3.2-9.9-3.4c-6.9-0.2-7.7-0.6-9.9-3.4c-1-1.2-1-1.7-1.1-39.6c-0.1-21.1,0-39,0.1-39.8c0.3-1.8,2.3-4.2,4.1-5c1.1-0.5,11.8-0.6,58.8-0.5C145.2,87.8,145.5,87.8,146.7,88.7z"/><path fill="#000000" d="M46.7,121.4c-3.9,1.4-7.1,6.1-7.1,10.2c0,5.8,5.3,11.1,11,11.1c3,0,5.3-1,7.7-3.5c4.7-4.7,4.7-11.2-0.2-15.6C54.6,120.8,50.8,120,46.7,121.4z"/><path fill="#000000" d="M83.6,121.4c-3.9,1.4-7.1,6.1-7.1,10.2c0,5.8,5.3,11.1,11,11.1c3,0,5.3-1,7.7-3.5c4.7-4.7,4.7-11.2-0.2-15.6C91.5,120.8,87.6,120,83.6,121.4z"/><path fill="#000000" d="M120.4,121.4c-3.9,1.4-7.1,6.1-7.1,10.2c0,5.8,5.3,11.1,11,11.1c3,0,5.3-1,7.7-3.5c4.7-4.7,4.7-11.2-0.2-15.6C128.3,120.8,124.5,120,120.4,121.4z"/></g></g></g>
</svg>