<?xml version="1.0" encoding="utf-8"?>
<!-- Svg Vector Icons : http://www.onlinewebfonts.com/icon -->
<!DOCTYPE svg PUBLIC "-//W3C//DTD SVG 1.1//EN" "http://www.w3.org/Graphics/SVG/1.1/DTD/svg11.dtd">
<svg version="1.1" xmlns="http://www.w3.org/2000/svg" xmlns:xlink="http://www.w3.org/1999/xlink" x="0px" y="0px" viewBox="0 0 256 256" enable-background="new 0 0 256 256" xml:space="preserve">
<metadata> Svg Vector Icons : http://www.onlinewebfonts.com/icon </metadata>
<g><g><path fill="#000000" d="M217.9,141.8l-8.6-9.3c38.1-35.2,20.2-72.6,19.4-74.2c-9.7-17.6-23.4-28.9-39.4-32.2c-15.8-3.4-31.2,1.5-39.5,7.8c-20.6,15.7-70.8,70.8-71.3,71.4l-9.4-8.5c2.1-2.3,51.5-56.6,73-72.9c9.8-7.4,28.7-14.5,49.8-10.1c13.8,2.9,33.3,12,47.9,38.7C240.2,53.1,263.2,99.9,217.9,141.8L217.9,141.8z M44.3,144.2c-53.4-35-28.6-90-28.4-90.6c18.8-34.2,48.9-38.1,57.7-38.4c32.3-1.4,55.5,25.2,56.4,26.3l-9.6,8.3c-0.2-0.2-20.4-23-46.3-21.9c-7.1,0.3-31.5,3.4-46.9,31.5c-0.6,1.5-20.1,45.3,24,74.3L44.3,144.2L44.3,144.2z M141.1,243.7c-6.3,0-14.4-2.6-23-12.2l9.4-8.4c4.3,4.8,10.8,10,17.4,7.2c5.2-2.1,4.8-13.3,4.5-16.2l-0.9-7.3l7.4,0.2c5.8,0,10-1.1,12.3-3.7c3.5-3.9,2.6-10.1,2.6-10.2l-1.2-8l8.1,0.8c5.7,0.6,9.8-0.4,12.3-2.9c3.8-3.9,3.7-11.3,3.3-13.8l-2-14.6l12,8.5c1.5,1,6.2-0.4,9.8-4.6c2.2-2.6,5.2-7.5,0.7-12.1c-10.8-11.2-39.8-39.9-51-51c-7.4,7.3-21,20-29,23C100.3,131.2,79.4,111,73,98.5l11.2-5.8c0.6,1.1,13.9,25.7,45,13.8c5.7-2.2,20.3-15.7,28.9-24.6l4.5-4.6l4.6,4.5c0.4,0.4,42.1,41.7,55.6,55.6c7.9,8.1,7.8,19.9-0.2,29.2c-4.3,5-10.6,8.8-16.8,9.3c-0.6,4.9-2.2,10.9-6.7,15.6c-4,4.1-9.3,6.5-15.8,6.9c-0.5,3.9-1.9,8.8-5.6,13c-3.7,4.3-8.9,6.8-15.5,7.7c-0.3,8.5-3.2,18.8-12.5,22.7C147.7,242.8,144.7,243.7,141.1,243.7L141.1,243.7L141.1,243.7z M49.9,181c-5.7,0-11.4-2.6-15.8-7.1c-3.7-3.8-5.9-8.6-6.4-13.5c-0.5-5.3,1.3-10.4,4.8-13.8l30.8-29.5c6.9-6.6,19.5-5.3,27.2,2.7c3.7,3.8,5.9,8.6,6.4,13.5c0.5,5.3-1.3,10.4-4.8,13.8l-30.8,29.5C58.4,179.5,54.3,181,49.9,181L49.9,181z M74.8,125.3c-0.8,0-1.9,0.2-2.7,0.9l-30.7,29.5c-1.1,1-1.1,2.6-1,3.5c0.2,2,1.3,4.2,2.9,5.9c2.9,3,7.4,4.1,9.3,2.3L83.4,138c1.1-1,1.1-2.6,1-3.5c-0.2-2-1.3-4.2-2.9-5.9C79.5,126.5,77,125.3,74.8,125.3L74.8,125.3z M70.1,201.4c-5.7,0-11.5-2.6-15.8-7.1c-7.9-8.3-8.6-20.5-1.6-27.3l30.8-29.5c6.9-6.6,19.6-5.3,27.2,2.7c3.7,3.8,5.9,8.6,6.4,13.5c0.5,5.3-1.3,10.4-4.8,13.8L81.5,197C78.6,199.8,74.5,201.4,70.1,201.4L70.1,201.4z M95,145.7c-0.8,0-1.9,0.2-2.7,0.9l-30.8,29.5c-1.8,1.7-1.4,6,1.9,9.4c1.9,2,4.4,3.2,6.7,3.2c0.8,0,1.9-0.1,2.7-0.9l30.8-29.5c1.1-1,1.1-2.6,1-3.5c-0.2-2-1.3-4.2-2.9-5.9C99.7,146.9,97.2,145.7,95,145.7L95,145.7z M90.3,221.8c-5.7,0-11.5-2.6-15.8-7.1c-7.9-8.2-8.6-20.5-1.6-27.3l30.8-29.5c6.9-6.6,19.5-5.3,27.2,2.7c7.9,8.3,8.6,20.5,1.6,27.3l-30.7,29.5C98.8,220.2,94.7,221.8,90.3,221.8L90.3,221.8L90.3,221.8z M115.1,166c-1.1,0-2,0.3-2.7,0.9l-30.8,29.5c-1.8,1.7-1.4,6,1.9,9.4c2,2,4.4,3.2,6.7,3.2c0.8,0,1.9-0.2,2.7-0.9l30.7-29.5c1.8-1.7,1.4-6-1.9-9.4C119.9,167.3,117.4,166,115.1,166L115.1,166z M110.5,242.1c-5.7,0-11.5-2.6-15.8-7.1c-3.7-3.8-5.9-8.6-6.4-13.5c-0.5-5.3,1.3-10.4,4.8-13.8l30.7-29.5c6.9-6.6,19.6-5.3,27.2,2.7c3.7,3.8,5.9,8.6,6.4,13.5c0.5,5.3-1.3,10.4-4.8,13.8l-30.7,29.5C118.9,240.6,114.9,242.1,110.5,242.1L110.5,242.1z M135.3,186.4c-1.1,0-2,0.3-2.7,0.9l-30.7,29.5c-1.1,1-1.1,2.6-1,3.5c0.2,2,1.3,4.2,2.9,5.9c2,2,4.4,3.2,6.7,3.2c0.8,0,1.9-0.1,2.7-0.9l30.8-29.5c1.1-1,1.1-2.6,1-3.5c-0.2-2-1.3-4.2-2.9-5.9C140.1,187.6,137.6,186.4,135.3,186.4L135.3,186.4z M146,150l35.4,35.5l-8.9,8.9l-35.5-35.5L146,150L146,150z M168.9,128.5l33.6,33.6l-8.9,9L160,137.5L168.9,128.5L168.9,128.5z"/></g></g>
</svg>